<!-- icon666.com - MILLIONS vector ICONS FREE --><svg id="Capa_1" enable-background="new 0 0 512 512" viewBox="0 0 512 512" xmlns="http://www.w3.org/2000/svg"><g><path clip-rule="evenodd" d="m256 39.385c-119.633 0-216.615 96.982-216.615 216.615s96.982 216.615 216.615 216.615 216.615-96.982 216.615-216.615-96.982-216.615-216.615-216.615zm-256 216.615c0-141.385 114.615-256 256-256s256 114.615 256 256-114.615 256-256 256-256-114.615-256-256zm235.217-97.367c7.69 7.69 7.69 20.159 0 27.849l-49.826 49.826h169.071c10.875 0 19.692 8.816 19.692 19.692s-8.817 19.692-19.692 19.692h-169.078l49.833 49.833c7.69 7.691 7.69 20.159 0 27.85-7.69 7.69-20.159 7.69-27.849 0l-83.446-83.447c-3.693-3.693-5.768-8.701-5.768-13.924s2.075-10.232 5.768-13.925l83.446-83.446c7.69-7.69 20.159-7.69 27.849 0z" fill-rule="evenodd"></path></g></svg>