<!-- icon666.com - MILLIONS vector ICONS FREE --><svg clip-rule="evenodd" fill-rule="evenodd" stroke-linejoin="round" stroke-miterlimit="2" viewBox="0 0 32 32" xmlns="http://www.w3.org/2000/svg"><g transform="translate(-128 -80)"><g transform="translate(0 -48)"><g id="Icon"><path d="m139.1 155c.464 2.281 2.483 4 4.9 4s4.436-1.719 4.9-4h7.1c.796 0 1.559-.316 2.121-.879.563-.562.879-1.325.879-2.121 0-.796-.316-1.559-.879-2.121-.223-.224-1.337-1.07-2.268-1.759-.533-.424-.849-1.079-.849-1.772 0-.001 0-.001 0-.002-.004-1.51-.004-3.877-.004-6.346 0-6.075-4.925-11-11-11-6.075 0-11 4.925-11 11v6.349c0 .688-.311 1.338-.846 1.77-.945.695-2.053 1.537-2.275 1.76-.563.562-.879 1.325-.879 2.121s.316 1.559.879 2.121c.562.563 1.325.879 2.121.879zm2.071 0h5.658c-.412 1.165-1.524 2-2.829 2s-2.417-.835-2.829-2zm11.829-15c0-4.971-4.029-9-9-9-4.971 0-9 4.029-9 9v6.349c0 1.311-.601 2.549-1.631 3.359-.009.007-.018.014-.027.02-.838.615-1.849 1.364-2.049 1.565-.188.187-.293.442-.293.707s.105.52.293.707c.187.188.442.293.707.293h24c.265 0 .52-.105.707-.293.188-.187.293-.442.293-.707s-.105-.52-.293-.707c-.201-.201-1.212-.951-2.049-1.57-.008-.006-.016-.012-.024-.018-1.029-.81-1.63-2.047-1.63-3.354-.004-1.51-.004-3.88-.004-6.351z"></path></g></g></g></svg>